<?xml version="1.0" encoding="utf-8"?>
<!-- Generator: Adobe Illustrator 26.0.1, SVG Export Plug-In . SVG Version: 6.00 Build 0)  -->
<svg version="1.1"
	 id="layer" xmlns:inkscape="http://www.inkscape.org/namespaces/inkscape" xmlns:sodipodi="http://sodipodi.sourceforge.net/DTD/sodipodi-0.dtd" xmlns:svg="http://www.w3.org/2000/svg"
	 xmlns="http://www.w3.org/2000/svg" xmlns:xlink="http://www.w3.org/1999/xlink" x="0px" y="0px" viewBox="0 0 778.9 984.6"
	 style="enable-background:new 0 0 778.9 984.6;" xml:space="preserve">
<style type="text/css">
	.st0{fill:none;}
	.st1{clip-path:url(#SVGID_00000115510886589210665070000003819113179307719815_);enable-background:new    ;}
</style>
<g id="g7704" transform="translate(33.301783,19.831399)">
	<rect id="rect7544" x="18.8" y="168.8" class="st0" width="384" height="246"/>
	<g>
		<g>
			<defs>
				<path id="SVGID_1_" d="M394,170.7c-0.3,0-364.7,0.2-365,0.2c-2.4,0-10,1.7-9.9,8.7c0,1.4,1.9,147.1,1.9,147.1l-2.2,1.5l0.7,59.7
					l2.2,2.4l0.2,10.3c0,2.6,3.8,10.8,10.3,11c0.9,0,47.9,0.2,47.9,0.2l2.8,1.4l257.4-0.4l2.7-1.7l46.1-0.5
					c4.1,0,10.2-5.8,10.3-10.6c0-1.1,0.1-11.6,0.1-11.6l1.9-1.2l1.1-59.4l-1.8-1.8c0,0,2.2-140.8,2.1-146S397,170.7,394,170.7
					L394,170.7z M215.7,259.2c-3,11.3-5.2,23.2-2.2,39.2l-19.8-0.2c2-13.3,2.2-26.4-2.7-38.9L215.7,259.2z M130.8,262.5
					c3.9,0,7.3,1.4,10.5,3.5l-2.7,2.8l4.3,3.7l3-2.5c5,6,4,9.5,3.7,13.2l-3.8-0.8l-1.1,4.9l3.4,1.5c-1.6,3.2-2.6,6.5-9.2,9.5l-0.8-3
					l-5.7,1.6l0.8,2.6c-5.1,0.8-9.2,0.1-12-2.7l1.7-2.5l-4.3-3.7l-2,2.2c-5.2-3.1-5.9-7.7-5.1-12.7l4.2,0.7l0.8-5.3l-3.9-0.7
					c1.7-4.4,4.2-8.2,9.9-10.3l1.1,3.5l5.3-1.1l-0.8-4.2C129,262.6,129.9,262.5,130.8,262.5L130.8,262.5z M291.2,262.9
					c3.9,0,7.3,1.4,10.5,3.5l-2.7,2.8l4.3,3.7l3-2.5c5,6,4,9.5,3.7,13.2l-3.8-0.8l-1.1,5l3.6,0.7c-0.9,2.4-3.9,6.5-9.5,8.9l-0.7-1.8
					l-5.7,1.6l0.5,1.7c-3.9,1-8.8,0.7-11.7-1.8l1.7-2.5L279,291l-2.7,2.4c-3.7-4.1-4.9-8-4.4-12.8l4.2,0.7l0.8-5.3l-3.9-0.7
					c1.7-4.4,4.2-8.2,9.9-10.3l1.1,3.5l5.3-1.1l-0.8-4.2C289.4,262.9,290.3,262.9,291.2,262.9L291.2,262.9z M161,386.7
					c2.6,0.1,4.3,1.2,4.7,3.7c-0.3,1.4-0.4,3-3.8,3.8h-5.3c-5.2-0.7-4.7-3.5-5-5.9c0.4-0.8,1.2-1.2,2-1.4L161,386.7z M268.2,386.7
					l2,1.8l-0.1,1.6c-0.5,1.5-1.4,2.7-3.4,3.4l-9.1,0.1v-3.3c0.4-1.9,2.2-3,3.6-3.6H268.2z M120.2,390.6c4.5-0.1,7.6,3.6,8.5,7.5
					c-4.9,4.9-13.8,4.3-14.9-5C116.1,391.4,118.2,390.6,120.2,390.6z M301.1,390.6h3.7l2.3,1.3v2.5c-0.9,2.4-2.7,4.5-6.8,5.9
					c-2.9,0.4-5.3-0.1-7.1-1.6C292.9,396.3,296,390.8,301.1,390.6L301.1,390.6z"/>
			</defs>
			<clipPath id="SVGID_00000027595085495558039430000003477298751355849377_">
				<use xlink:href="#SVGID_1_"  style="overflow:visible;"/>
			</clipPath>
			<g style="clip-path:url(#SVGID_00000027595085495558039430000003477298751355849377_);enable-background:new    ;">
			</g>
		</g>
	</g>
	<g>
		<defs>
			<path id="SVGID_00000120544637107782032550000000871828693668934823_" d="M373.5,190.4l-324.1,0.9c-4,0-8.3,1.8-8.2,5.8
				l3.5,144.7c0.1,4.4,3.2,5,7.4,5l320.2-0.8c3.4,0,4.7-1.9,4.7-4.6l2.5-145.8C379.6,191.7,377.5,190.4,373.5,190.4z M326.1,312.9
				c0,2-1.6,3.6-3.6,3.6H99c-2,0-3.6-1.6-3.6-3.6v-64.5c0-2,1.6-3.6,3.6-3.6h223.5c2,0,3.6,1.6,3.6,3.6V312.9z"/>
		</defs>
		<clipPath id="SVGID_00000024004017274328627970000004547973611340953488_">
			<use xlink:href="#SVGID_00000120544637107782032550000000871828693668934823_"  style="overflow:visible;"/>
		</clipPath>
		<g style="opacity:0.75;clip-path:url(#SVGID_00000024004017274328627970000004547973611340953488_);">
			
				<image style="overflow:visible;" width="500" height="500" xlink:href="D4FCBE87.jpg"  transform="matrix(0.6719 0 0 0.466 41.1983 180.8518)">
			</image>
		</g>
	</g>
</g>
<g id="_x32_">
	<g id="g11144">
		<rect id="rect11042" x="56.1" y="463.3" class="st0" width="384" height="246"/>
	</g>
	<g>
		<defs>
			<path id="SVGID_00000065791778948358110230000012545869394095805072_" d="M418.7,498.4l-16.1-15l-308.2,0.7L78.5,500v141.5
				l341.3-1.5L418.7,498.4z M359.2,597.5c0,3.2-2.6,5.8-5.8,5.8H144.7c-3.2,0-5.8-2.6-5.8-5.8v-47.4c0-3.2,2.6-5.8,5.8-5.8h208.7
				c3.2,0,5.8,2.6,5.8,5.8V597.5z"/>
		</defs>
		<clipPath id="SVGID_00000054263462802585922960000003890860122467794319_">
			<use xlink:href="#SVGID_00000065791778948358110230000012545869394095805072_"  style="overflow:visible;"/>
		</clipPath>
		<g style="opacity:0.75;clip-path:url(#SVGID_00000054263462802585922960000003890860122467794319_);">
			
				<image style="overflow:visible;" width="640" height="480" xlink:href="D4FCBE85.jpg"  transform="matrix(0.7747 0 0 0.7747 0.2 387.8479)">
			</image>
		</g>
	</g>
</g>
<g>
	<g id="g11000">
		<rect id="rect10880" x="57" y="738.6" class="st0" width="384" height="246"/>
	</g>
	<g>
		<defs>
			<path id="SVGID_00000028312851184753841900000001725636221164307377_" d="M419.7,774.1l-16.1-15l-308.2,0.7l-15.9,15.9v141.5
				l341.3-1.5L419.7,774.1z M360.1,873.1c0,3.2-2.6,5.8-5.8,5.8H145.6c-3.2,0-5.8-2.6-5.8-5.8v-47.3c0-3.3,2.6-5.9,5.8-5.9h208.7
				c3.2,0,5.8,2.6,5.8,5.8V873.1z"/>
		</defs>
		<clipPath id="SVGID_00000078759313418611951220000004127263994747778996_">
			<use xlink:href="#SVGID_00000028312851184753841900000001725636221164307377_"  style="overflow:visible;"/>
		</clipPath>
		<g style="opacity:0.75;clip-path:url(#SVGID_00000078759313418611951220000004127263994747778996_);">
			
				<image style="overflow:visible;" width="512" height="512" xlink:href="D4FCBE8B.jpg"  transform="matrix(0.7122 0 0 0.7122 61.7701 741.5733)">
			</image>
		</g>
	</g>
</g>
</svg>
